<svg width="65" height="65" viewBox="0 0 65 65" fill="none" xmlns="http://www.w3.org/2000/svg">
<path d="M8.04688 1H56.0469C60.189 1 63.5469 4.35786 63.5469 8.5V56.5C63.5469 60.6421 60.189 64 56.0469 64H8.04688C3.90474 64 0.546875 60.6421 0.546875 56.5V8.5C0.546875 4.35786 3.90474 1 8.04688 1Z" fill="white"/>
<path d="M8.04688 1H56.0469C60.189 1 63.5469 4.35786 63.5469 8.5V56.5C63.5469 60.6421 60.189 64 56.0469 64H8.04688C3.90474 64 0.546875 60.6421 0.546875 56.5V8.5C0.546875 4.35786 3.90474 1 8.04688 1Z" stroke="#F3F4F6"/>
<path d="M26.4453 20.6641C26.345 20.7683 26.2548 20.8795 26.1829 21.0044C26.0562 21.2257 25.9807 21.4814 25.9815 21.7489V23.1068H26.8216V22.0955C26.5923 21.8881 26.4391 21.6143 26.4391 21.3046V20.7067L26.4453 20.6641Z" fill="#004B75"/>
<path d="M37.3091 22.0933V23.1046H38.1495V21.7467C38.1495 21.4792 38.075 21.2235 37.9477 21.0022C37.8757 20.8781 37.7862 20.7678 37.6862 20.6641L37.6908 20.7045V21.3024C37.6908 21.612 37.5386 21.8859 37.3091 22.0933Z" fill="#004B75"/>
<path d="M37.217 19.83C36.9311 19.6155 36.5482 19.4883 36.1292 19.4883H27.9647C27.545 19.4883 27.1621 19.6155 26.8767 19.83C26.6046 20.034 26.422 20.3294 26.408 20.6628L26.4019 20.7055V21.3034C26.4019 21.613 26.5546 21.8869 26.784 22.0943L26.8767 22.1781C27.1621 22.3932 27.545 22.5196 27.9647 22.5201H36.1292C36.5482 22.5196 36.9311 22.3932 37.217 22.1781L37.3089 22.0943C37.5384 21.8869 37.6907 21.613 37.6907 21.3034V20.7055L37.686 20.6651C37.672 20.3299 37.4896 20.034 37.217 19.83Z" fill="#29B273"/>
<path d="M22.566 33.6925C22.598 33.6602 22.6417 33.6423 22.6861 33.6423H23.006V33.1523H19.9758V43.2438H44.1173V33.1524H41.0874V33.6424H41.4066C41.4517 33.6424 41.4961 33.6602 41.5274 33.6925C41.5593 33.7237 41.5767 33.7673 41.5767 33.8126V36.7503C41.5767 36.7964 41.5594 36.8386 41.5274 36.8707C41.4944 36.9028 41.4517 36.9212 41.4066 36.9212H38.4686C38.4237 36.9212 38.3799 36.9024 38.3487 36.8707C38.3168 36.8393 38.2975 36.7953 38.2975 36.7503V33.8126C38.2975 33.7673 38.3168 33.7236 38.3487 33.6925C38.3799 33.6602 38.4238 33.6424 38.4686 33.6424H38.7883V33.1524H25.3053V33.6424H25.6248C25.6691 33.6424 25.713 33.6602 25.7449 33.6925C25.7766 33.7237 25.7944 33.7673 25.7944 33.8126V36.7503C25.7944 36.7964 25.7766 36.8386 25.7449 36.8707C25.713 36.9028 25.6696 36.9212 25.6248 36.9212H22.6861C22.6417 36.9212 22.598 36.9024 22.566 36.8707C22.5348 36.8393 22.5162 36.7953 22.5162 36.7503V33.8126C22.5162 33.7673 22.5348 33.7236 22.566 33.6925Z" fill="#004B75"/>
<path d="M18.1658 33.1523V43.0793C18.1658 44.424 19.2563 45.5143 20.6017 45.5143H43.4916C44.837 45.5143 45.9273 44.424 45.9273 43.0793V33.1523H44.457V43.4142V43.5846H19.6343V33.1523H18.1658Z" fill="#004B75"/>
<path d="M19.6343 33.1523V43.5846H44.4577V43.4142V33.1523H44.1172V43.2438H19.9758V33.1523H19.6343Z" fill="#29B273"/>
<path d="M41.0874 33.154H44.1173H44.4571H45.9273H46.4809C46.526 33.154 46.5692 33.1364 46.601 33.1045C46.6339 33.0722 46.6513 33.0292 46.6513 32.9839V25.6602C46.6513 24.2497 45.5076 23.106 44.0965 23.1055H38.1494H37.309H26.7834H25.9438H19.996C18.5853 23.106 17.4424 24.2496 17.4424 25.6602V32.9839C17.4424 33.029 17.4595 33.0721 17.4922 33.1045C17.5238 33.1361 17.5664 33.154 17.6121 33.154H18.1659H19.6344H19.9759H23.006V31.1957V30.8549H23.3456H24.9643H25.3046V31.1957V33.154H38.7883V31.1957V30.8549H39.1291H40.7469H41.0874V31.1957V33.154Z" fill="#7FD1AB"/>
<path d="M25.4534 36.5819V33.9844H22.8562V36.5819H25.4534ZM23.3456 35.2828V34.6444C23.3456 34.5998 23.3645 34.5559 23.3958 34.5239C23.4267 34.4921 23.4711 34.4739 23.5157 34.4739H24.7933C24.8379 34.4739 24.8825 34.4921 24.9144 34.5239C24.9457 34.5559 24.9644 34.5998 24.9644 34.6444V35.2828V35.9217C24.9644 35.9673 24.9462 36.01 24.9144 36.0421C24.8812 36.0746 24.8391 36.0916 24.7933 36.0916H23.5157C23.4711 36.0916 23.4267 36.074 23.3958 36.0421C23.3645 36.0103 23.3456 35.9663 23.3456 35.9217V35.2828Z" fill="#7FD1AB"/>
<path d="M25.3043 31.1962V30.8555H24.964H23.3453H23.0053V31.1962V33.1546V33.6445H22.6858C22.6407 33.6445 22.5968 33.6624 22.5649 33.6947C22.534 33.7258 22.5146 33.7695 22.5146 33.8148V36.7525C22.5146 36.7975 22.534 36.8415 22.5649 36.8729C22.5968 36.9047 22.6406 36.9234 22.6858 36.9234H25.623C25.6689 36.9234 25.7113 36.905 25.7439 36.8729C25.7763 36.8408 25.7937 36.7986 25.7937 36.7525V33.8148C25.7937 33.7694 25.7763 33.7258 25.7439 33.6947C25.7113 33.6624 25.6679 33.6445 25.623 33.6445H25.3043V33.1546V31.1962ZM23.3453 31.1962H24.964V33.6445H23.3453V31.1962ZM25.4531 33.985V36.5826H22.8559V33.985H25.4531Z" fill="white"/>
<path d="M23.5154 34.4727C23.4708 34.4727 23.4271 34.4909 23.3955 34.5227C23.3641 34.5547 23.3452 34.5986 23.3452 34.6432V35.2816V35.9205C23.3452 35.9651 23.3641 36.0091 23.3955 36.0408C23.4271 36.0727 23.4708 36.0903 23.5154 36.0903H24.7929C24.8388 36.0903 24.8809 36.0733 24.914 36.0408C24.9459 36.0087 24.964 35.966 24.964 35.9205V35.2816V34.6432C24.964 34.5986 24.9454 34.5547 24.914 34.5227C24.8821 34.4909 24.8385 34.4727 24.7929 34.4727H23.5154Z" fill="#004B75"/>
<path d="M24.9633 31.1953H23.3452V33.6436H24.9633V31.1953Z" fill="#29B273"/>
<path d="M40.7135 31.1953H39.095V33.6436H40.7135V31.1953Z" fill="#29B273"/>
<path d="M41.2034 36.5819V33.9844H38.6052V36.5819H41.2034ZM39.0958 35.2828V34.6444C39.0958 34.5998 39.1137 34.5559 39.1455 34.5239C39.1766 34.4921 39.2205 34.4739 39.2652 34.4739H40.5435C40.5874 34.4739 40.6315 34.4921 40.6633 34.5239C40.6947 34.5559 40.7136 34.5998 40.7136 34.6444V35.2828V35.9217C40.7136 35.9673 40.6955 36.01 40.6633 36.0421C40.6315 36.0746 40.5888 36.0916 40.5435 36.0916H39.2652C39.2213 36.0916 39.1767 36.074 39.1455 36.0421C39.1137 36.0103 39.0958 35.9663 39.0958 35.9217V35.2828Z" fill="#7FD1AB"/>
<path d="M41.0546 31.1962V30.8555H40.7143H39.0962H38.7552V31.1962V33.1546V33.6445H38.4358C38.3904 33.6445 38.347 33.6624 38.3154 33.6947C38.284 33.7258 38.2649 33.7695 38.2649 33.8148V36.7525C38.2649 36.7975 38.284 36.8415 38.3154 36.8729C38.347 36.9047 38.3904 36.9234 38.4358 36.9234H41.3737C41.4188 36.9234 41.4615 36.905 41.4946 36.8729C41.5263 36.8408 41.5439 36.7986 41.5439 36.7525V33.8148C41.5439 33.7694 41.5263 33.7258 41.4946 33.6947C41.4635 33.6624 41.4189 33.6445 41.3737 33.6445H41.0546V33.1546V31.1962ZM39.0962 31.1962H40.7143V33.6445H39.0962V31.1962ZM41.2041 33.985V36.5826H38.6064V33.985H41.2041Z" fill="white"/>
<path d="M39.2651 34.4727C39.2204 34.4727 39.1766 34.4909 39.1454 34.5227C39.1136 34.5547 39.0957 34.5986 39.0957 34.6432V35.2816V35.9205C39.0957 35.9651 39.1136 36.0091 39.1454 36.0408C39.1765 36.0727 39.2212 36.0903 39.2651 36.0903H40.5434C40.5887 36.0903 40.6314 36.0733 40.6633 36.0408C40.6953 36.0087 40.7135 35.966 40.7135 35.9205V35.2816V34.6432C40.7135 34.5986 40.6946 34.5547 40.6633 34.5227C40.6314 34.4909 40.5873 34.4727 40.5434 34.4727H39.2651Z" fill="#004B75"/>
</svg>
