<svg width="56" height="56" viewBox="0 0 56 56" fill="none" xmlns="http://www.w3.org/2000/svg">
<path d="M8 0.5H48C52.1421 0.5 55.5 3.85786 55.5 8V48C55.5 52.1421 52.1421 55.5 48 55.5H8C3.85786 55.5 0.5 52.1421 0.5 48V8C0.5 3.85786 3.85786 0.5 8 0.5Z" fill="white"/>
<path d="M8 0.5H48C52.1421 0.5 55.5 3.85786 55.5 8V48C55.5 52.1421 52.1421 55.5 48 55.5H8C3.85786 55.5 0.5 52.1421 0.5 48V8C0.5 3.85786 3.85786 0.5 8 0.5Z" stroke="#F3F4F6"/>
<path d="M48.8755 35.6179C48.8755 32.5205 46.4622 29.9881 43.4136 29.7949C43.4621 29.4607 43.4883 29.1192 43.4883 28.7716C43.4883 24.8665 40.3227 21.7008 36.4176 21.7008C34.9319 21.7008 33.5541 22.16 32.4161 22.9427C30.8035 20.0596 27.7224 18.1094 24.1842 18.1094C19.0445 18.1094 14.8683 22.2231 14.7615 27.3371C14.5746 27.3223 14.386 27.3125 14.1952 27.3125C10.2901 27.3125 7.12451 30.4782 7.12451 34.3833C7.12451 38.2509 10.2302 41.3913 14.0836 41.4512L14.083 41.454H43.6006L43.5961 41.4269C46.558 41.1465 48.8755 38.6532 48.8755 35.6179Z" fill="#6DCDFC"/>
<path d="M33.2921 14.5764L33.2291 32.503L18.0449 32.4596L18.0967 17.6567L21.5742 14.543L33.2921 14.5764Z" fill="#004B75"/>
<path d="M18.0972 17.6567L21.5747 14.543L21.5637 17.6666L18.0972 17.6567Z" fill="#1C75BC"/>
<path d="M34.3893 15.6741L34.3262 33.6006L19.142 33.5573L19.1939 18.7543L22.6714 15.6406L34.3893 15.6741Z" fill="#FFAF57"/>
<path d="M19.1937 18.7543L22.6711 15.6406L22.6602 18.7642L19.1937 18.7543Z" fill="#FFDA08"/>
<path d="M35.7537 16.6975L35.6909 34.6241L20.5065 34.5809L20.5585 19.7778L24.0358 16.6641L35.7537 16.6975Z" fill="#FEFEFE"/>
<path d="M21.9871 19.8086L34.6915 19.8453L34.6936 19.3374L21.9894 19.3008L21.9871 19.8086Z" fill="#D2E3F2"/>
<path d="M21.9878 21.5196L34.692 21.5562L34.6943 21.0484L21.9899 21.0117L21.9878 21.5196Z" fill="#D2E3F2"/>
<path d="M21.9871 23.5663L34.6915 23.6029L34.6936 23.0952L21.9894 23.0586L21.9871 23.5663Z" fill="#D2E3F2"/>
<path d="M21.9878 25.2733L34.692 25.31L34.6943 24.8023L21.9899 24.7656L21.9878 25.2733Z" fill="#D2E3F2"/>
<path d="M21.9871 27.4335L34.6915 27.4701L34.6936 26.9624L21.9894 26.9258L21.9871 27.4335Z" fill="#D2E3F2"/>
<path d="M21.9878 29.1444L34.692 29.181L34.6943 28.6734L21.9899 28.6367L21.9878 29.1444Z" fill="#D2E3F2"/>
<path d="M21.9871 31.1913L34.6915 31.2279L34.6936 30.7202L21.9894 30.6836L21.9871 31.1913Z" fill="#D2E3F2"/>
<path d="M21.9878 32.8983L34.692 32.935L34.6943 32.4273L21.9899 32.3906L21.9878 32.8983Z" fill="#D2E3F2"/>
<path d="M20.5588 19.7778L24.0361 16.6641L24.0253 19.7877L20.5588 19.7778Z" fill="#DBD7D7"/>
</svg>
