<svg width="188" height="59" viewBox="0 0 188 59" fill="none" xmlns="http://www.w3.org/2000/svg">
<g clip-path="url(#clip0_21975_85268)">
<mask id="mask0_21975_85268" style="mask-type:luminance" maskUnits="userSpaceOnUse" x="0" y="0" width="188" height="59">
<path d="M187.813 0H0V58.261H187.813V0Z" fill="white"/>
</mask>
<g mask="url(#mask0_21975_85268)">
<path d="M109.196 25.8694C109.196 25.8694 109.607 26.5984 110.018 25.8694L123.985 1.12839C123.985 1.12839 124.396 0.400391 123.56 0.400391H95.6598C95.6598 0.400391 94.8237 0.400391 95.2347 1.12839L109.196 25.8694Z" fill="#449DDE"/>
<path d="M109.193 32.4002C109.193 32.4002 109.604 31.6712 110.015 32.4002L123.981 57.1412C123.981 57.1412 124.392 57.8692 123.556 57.8692H95.6558C95.6558 57.8692 94.8198 57.8692 95.2308 57.1412L109.193 32.4002Z" fill="#449DDE"/>
<path d="M64.553 26.2142V21.1632H51.244V14.9323H58.655V9.91825H51.244V5.45725H64V0.40625H46.082V26.2142H64.553ZM90.953 26.2142V0.40625H85.865V11.3193C85.865 12.7573 85.939 16.0013 85.939 16.9603C85.607 16.2963 84.759 15.0062 84.132 14.0472L74.989 0.40625H70.049V26.2142H75.137V14.8582C75.137 13.4202 75.063 10.1762 75.063 9.21725C75.395 9.88125 76.243 11.1712 76.87 12.1302L86.345 26.2142H90.953Z" fill="#449DDE"/>
<path d="M133.432 0.406H128.27V26.213H133.432V0.406ZM161.341 26.214L156.401 16.186C159.682 14.896 161.341 12.462 161.341 8.591C161.341 3.098 157.322 0.406 152.456 0.406H140.437V26.213H145.599V16.923H150.799L155.408 26.214H161.341ZM156.032 8.7C156.032 10.949 154.742 12.055 152.345 12.055H145.598V5.42H152.345C154.631 5.42 156.032 6.379 156.032 8.701M187.812 13.31C187.812 5.457 183.646 0 176.604 0C169.562 0 165.396 5.457 165.396 13.309C165.396 21.161 169.564 26.619 176.604 26.619C183.644 26.619 187.812 21.162 187.812 13.31ZM182.503 13.31C182.503 17.919 180.77 21.495 176.603 21.495C172.436 21.495 170.703 17.919 170.703 13.31C170.703 8.701 172.436 5.125 176.603 5.125C180.77 5.125 182.503 8.701 182.503 13.31Z" fill="#449DDE"/>
<path d="M20.167 50.0364C20.167 44.4364 15.632 43.0364 11.54 42.0724C7.448 41.1084 6.34 40.5974 6.34 38.9724C6.34 37.8294 7.262 36.6494 10.027 36.6494C11.136 36.654 12.2315 36.8928 13.2418 37.3504C14.252 37.8079 15.1541 38.4738 15.889 39.3044L19.613 35.6914C18.4279 34.3818 16.9754 33.3419 15.3537 32.6422C13.7319 31.9424 11.9789 31.5991 10.213 31.6354C5.125 31.6424 1 34.5184 1 39.2004C1 44.2884 4.318 45.8004 9.074 46.9054C13.941 48.0114 14.825 48.7484 14.825 50.4054C14.825 52.3594 13.387 53.2054 10.325 53.2054C9.07434 53.239 7.83209 52.9915 6.68982 52.4811C5.54755 51.9707 4.53438 51.2105 3.725 50.2564L0 53.5794C1.954 56.4554 5.715 58.2614 10.028 58.2614C17.07 58.2614 20.167 54.9434 20.167 50.0394M46.344 46.4634V32.0484H41.182V46.5364C41.182 50.6654 39.154 53.2094 35.873 53.2094C32.592 53.2094 30.601 50.5914 30.601 46.4624V32.0484H25.439V46.5364C25.439 54.0574 29.639 58.2604 35.873 58.2604C42.436 58.2604 46.344 53.9464 46.344 46.4604M71.709 50.0364C71.709 44.4364 67.174 43.0364 63.082 42.0724C58.99 41.1084 57.882 40.5974 57.882 38.9724C57.882 37.8294 58.804 36.6494 61.569 36.6494C62.678 36.654 63.7735 36.8928 64.7838 37.3504C65.794 37.8079 66.6961 38.4738 67.431 39.3044L71.155 35.6914C69.9699 34.3818 68.5174 33.3419 66.8957 32.6422C65.274 31.9424 63.5209 31.5991 61.755 31.6354C56.667 31.6354 52.538 34.5114 52.538 39.1934C52.538 44.2814 55.856 45.7934 60.612 46.8984C65.479 48.0044 66.363 48.7414 66.363 50.3984C66.363 52.3524 64.925 53.1984 61.863 53.1984C60.6123 53.232 59.3701 52.9845 58.2278 52.4741C57.0856 51.9637 56.0724 51.2035 55.263 50.2494L51.539 53.5674C53.493 56.4434 57.254 58.2494 61.567 58.2494C68.609 58.2494 71.706 54.9314 71.706 50.0274M94.535 37.1364V32.0484H74.552V37.1364H81.963V57.8564H87.125V37.1364H94.535Z" fill="#449DDE"/>
<path d="M133.432 32.0605H128.27V57.8685H133.432V32.0605ZM161.341 57.8685V32.0605H156.253V42.9735C156.253 44.4115 156.327 47.6555 156.327 48.6145C155.995 47.9505 155.147 46.6605 154.52 45.7015L145.377 32.0605H140.437V57.8685H145.525V46.5126C145.525 45.0746 145.451 41.8305 145.451 40.8715C145.783 41.5355 146.631 42.8255 147.258 43.7845L156.733 57.8685H161.341Z" fill="#449DDE"/>
</g>
</g>
<defs>
<clipPath id="clip0_21975_85268">
<rect width="187.813" height="58.261" fill="white"/>
</clipPath>
</defs>
</svg>
