<svg xmlns="http://www.w3.org/2000/svg" viewBox="0 0 175 125.2"><defs><style>.cls-1{fill:#004100;}</style></defs><g id="Layer_2" data-name="Layer 2"><g id="Layer_1-2" data-name="Layer 1"><path class="cls-1" d="M42.72,115.45a8.42,8.42,0,0,0-6.21-2.52c-3.54,0-5.92,2-5.92,4.76s2.45,4.77,6.21,4.77a7.62,7.62,0,0,0,5.92-2.67l2.89,1.58a10.51,10.51,0,0,1-8.67,3.83,12.19,12.19,0,0,1-6.64-1.8,6.72,6.72,0,0,1-3.11-5.71,6.51,6.51,0,0,1,2.46-5.13,11.46,11.46,0,0,1,7.15-2.31,11,11,0,0,1,9,4.19Z"/><path class="cls-1" d="M56.73,113.14l-3.1,5.78h6.21Zm6.14,11.56-1.59-3h-9.1l-1.59,3H47.13l7.51-14.16H58.9l7.51,14.16Z"/><path class="cls-1" d="M82.16,115.16c0-1.22-.8-1.87-2.32-1.87H72.12V117h7.8c1.37,0,2.24-.72,2.24-1.81m3.39,0c0,3-1.88,4.55-5.49,4.55H72v5H68.58V110.54H80.21c3.25,0,5.34,1.88,5.34,4.62"/><rect class="cls-1" x="88.08" y="110.54" width="3.47" height="14.16"/><polygon class="cls-1" points="104.55 113.29 104.55 124.7 101.08 124.7 101.08 113.29 94.36 113.29 94.36 110.54 111.26 110.54 111.26 113.29 104.55 113.29"/><path class="cls-1" d="M121.45,113.14l-3.11,5.78h6.21Zm6.21,11.56-1.59-3H117l-1.59,3h-3.47l7.51-14.16h4.26l7.52,14.16Z"/><polygon class="cls-1" points="133.43 124.7 133.43 110.54 136.9 110.54 136.9 121.95 147.81 121.95 147.81 124.7 133.43 124.7"/><path class="cls-1" d="M13.51,91.94c0-1.08-.87-1.81-2.31-1.81H3.47v3.69h7.8c1.37,0,2.24-.72,2.24-1.88m-.08,9.61-3.46-5H3.47v5H0V87.39H11.63C14.88,87.39,17,89.27,17,92a4,4,0,0,1-3.25,4.26l3.61,5.28Z"/><path class="cls-1" d="M29.47,89.7c-3.69,0-6.07,2-6.07,4.77s2.31,4.76,6.07,4.76,6.06-2,6.06-4.76-2.31-4.77-6.06-4.77m7.22,10A11.55,11.55,0,0,1,29.47,102a11.18,11.18,0,0,1-7.15-2.31,6.65,6.65,0,0,1,0-10.33A11,11,0,0,1,29.47,87a11.3,11.3,0,0,1,7.15,2.31,6.5,6.5,0,0,1,2.45,5.13,6.57,6.57,0,0,1-2.38,5.2"/><path class="cls-1" d="M51.21,102c-5.27,0-8.6-2.17-8.6-5.2V87.39h3.47v8.88c0,1.74,1.88,2.89,5.13,2.89s5.13-1.23,5.13-2.89V87.39H59.8v9.39c0,3-3.25,5.2-8.59,5.2"/><polygon class="cls-1" points="77.5 101.55 67.89 91.43 67.82 91.43 67.82 101.55 64.35 101.55 64.35 87.39 68.4 87.39 78 97.5 78.07 97.5 78.07 87.39 81.54 87.39 81.54 101.55 77.5 101.55"/><path class="cls-1" d="M99.6,97a3.92,3.92,0,0,0,.86-2.46,4.44,4.44,0,0,0-4.76-4.48H89.41V98.8H95.7A4.63,4.63,0,0,0,99.6,97m4.55-2.39a6.37,6.37,0,0,1-2.53,5.13,8.86,8.86,0,0,1-5.56,1.8h-10V87.39h9.46c5.28,0,8.6,2.89,8.6,7.22"/><polygon class="cls-1" points="127.48 101.55 127.48 95.48 117.22 95.48 117.22 101.55 113.75 101.55 113.75 87.39 117.22 87.39 117.22 92.52 127.48 92.52 127.48 87.39 130.94 87.39 130.94 101.55 127.48 101.55"/><rect class="cls-1" x="135.49" y="87.39" width="3.47" height="14.16"/><polygon class="cls-1" points="143.44 101.55 143.44 87.39 146.91 87.39 146.91 98.8 157.81 98.8 157.81 101.55 143.44 101.55"/><polygon class="cls-1" points="160.63 101.55 160.63 87.39 164.09 87.39 164.09 98.8 175 98.8 175 101.55 160.63 101.55"/><path class="cls-1" d="M83.4,31.71h-16a5.15,5.15,0,1,1-.09-10.3H83.49v10.3ZM107,17.25V31.71H87.64V17.25H66.86a9.12,9.12,0,0,0-9,9.31,9.44,9.44,0,0,0,9.4,9.31h10L57.74,51.76h6.78L83.4,35.87V51.76h4.15V35.87h19.34V51.49H111V17.16Z"/><path class="cls-1" d="M52.59,63.6h63.69V5.42H52.59ZM121.7,69H47.17V0H121.7Z"/></g></g></svg>