<svg width="155" height="42" viewBox="0 0 155 42" fill="none" xmlns="http://www.w3.org/2000/svg">
<g clip-path="url(#clip0_2201_1135)">
<path d="M154.71 2.31365C154.526 1.86095 154.261 1.45662 153.925 1.10931C153.589 0.762003 153.198 0.488995 152.762 0.298926C152.309 0.100218 151.83 0 151.337 0C150.844 0 150.365 0.100218 149.912 0.298926C149.476 0.488995 149.085 0.762003 148.749 1.10931C148.413 1.45662 148.149 1.86267 147.963 2.31365C147.772 2.78364 147.674 3.27955 147.674 3.79101V10.9013C147.674 11.4128 147.77 11.9104 147.963 12.3787C148.148 12.8314 148.413 13.2357 148.749 13.583C149.085 13.9303 149.476 14.2033 149.912 14.3934C150.365 14.5921 150.844 14.6923 151.337 14.6923C151.83 14.6923 152.309 14.5921 152.762 14.3934C153.198 14.2033 153.589 13.9303 153.925 13.583C154.261 13.2357 154.524 12.8296 154.71 12.3787C154.902 11.9087 155 11.4128 155 10.9013V3.79273C155 3.28128 154.903 2.78364 154.71 2.31538V2.31365ZM153.222 10.9013C153.222 11.9743 152.376 12.8469 151.335 12.8469C150.294 12.8469 149.448 11.9743 149.448 10.9013V3.79273C149.448 2.71971 150.294 1.84712 151.335 1.84712C152.376 1.84712 153.222 2.71971 153.222 3.79273V10.903V10.9013Z" fill="url(#paint0_linear_2201_1135)"/>
<path d="M144.343 7.32325H139.09V28.7008H144.343V7.32325Z" fill="#052828"/>
<path d="M125.01 23.4307C121.953 23.4307 119.455 21.2294 119.455 17.5144C119.455 13.7994 121.953 11.5117 125.01 11.5117C128.067 11.5117 130.523 13.8443 130.523 17.5144C130.523 21.1844 128.025 23.4307 125.01 23.4307ZM135.734 17.5144C135.734 15.1817 135.131 13.0668 133.494 11.2076L135.863 8.18547L131.986 5.24805L129.877 7.92629C128.413 6.93275 126.69 6.71676 125.01 6.71676C119.067 6.71676 114.245 10.862 114.245 17.5144C114.245 24.1668 118.38 28.2239 125.01 28.2239C127.638 28.2239 130.393 29.563 130.393 32.4987C130.393 35.4344 128.025 37.0776 125.01 37.0776C121.995 37.0776 119.455 35.2634 119.455 32.4987H114.245C114.245 38.2422 118.854 42.0004 125.01 42.0004C131.166 42.0004 135.648 38.3736 135.648 32.4987C135.648 29.779 134.786 27.2304 131.256 25.4593C134.745 23.861 135.734 20.1477 135.734 17.5144Z" fill="#052828"/>
<path d="M96.631 7.40965V28.7008H101.884V17.4729C101.884 13.5437 104.424 12.075 107.181 12.075C108.904 12.075 109.893 12.5501 110.97 13.4573L113.337 8.87836C112.174 7.71203 110.065 6.84981 107.868 6.84981C105.671 6.84981 103.519 7.23858 101.883 9.8719L101.495 7.40965H96.6293H96.631Z" fill="#052828"/>
<path d="M76.0915 15.5722C76.8668 12.8076 79.1911 11.4253 82.034 11.4253C85.0492 11.4253 87.2012 12.8076 87.5458 15.5722H76.0915ZM81.8617 6.76168C74.9715 6.76168 70.5797 11.4253 70.5797 17.9032C70.5797 24.7266 74.9302 29.2606 82.2511 29.2606C85.4799 29.2606 89.1412 28.1375 91.3811 25.8066L88.0213 22.4804C86.8152 23.7331 84.2738 24.4674 82.3372 24.4674C78.6328 24.4674 76.3516 22.5668 76.007 19.9334H92.5854C93.4039 11.1678 88.9689 6.76168 81.8617 6.76168Z" fill="#052828"/>
<path d="M67.0045 28.6991V17.5144C67.0045 10.8205 63.0003 7.06234 58.0037 7.06234C55.3331 7.06234 53.1812 8.14227 51.0274 10.2572L50.6828 7.36472H45.9895V28.6973H51.1997V17.815C51.1997 14.577 53.3965 11.8555 56.6271 11.8555C59.8577 11.8555 61.7512 14.3178 61.7512 17.5559V28.6973H67.0045V28.6991Z" fill="#052828"/>
<path d="M25.5792 15.5722C26.3545 12.8076 28.6805 11.4253 31.5234 11.4253C34.5369 11.4253 36.6906 12.8076 37.0352 15.5722H25.5792ZM31.3494 6.76168C24.4593 6.76168 20.0674 11.4253 20.0674 17.9032C20.0674 24.7266 24.4162 29.2606 31.7371 29.2606C34.9659 29.2606 38.6272 28.1375 40.8654 25.8066L37.5056 22.4804C36.2995 23.7331 33.7598 24.4674 31.8215 24.4674C28.1188 24.4674 25.8359 22.5668 25.4913 19.9334H42.0697C42.8881 11.1678 38.4532 6.76168 31.3477 6.76168" fill="#052828"/>
<path d="M0.775336 7.40965V12.2028H10.1621L0 26.4977V28.6991H17.8706V23.5171H8.01008L17.7845 9.91337V7.40965H0.775336Z" fill="#052828"/>
</g>
<defs>
<linearGradient id="paint0_linear_2201_1135" x1="154.328" y1="2.15123" x2="147.964" y2="13.1439" gradientUnits="userSpaceOnUse">
<stop stop-color="#FFA329"/>
<stop offset="0.22" stop-color="#FF9A23"/>
<stop offset="0.59" stop-color="#FF8114"/>
<stop offset="1" stop-color="#FF5F00"/>
</linearGradient>
<clipPath id="clip0_2201_1135">
<rect width="155" height="42" fill="white"/>
</clipPath>
</defs>
</svg>
